<svg width="800" height="600" viewBox="0 0 800 600" fill="none" xmlns="http://www.w3.org/2000/svg">
  <rect width="800" height="600" fill="#F8FAFC"/>
  <path d="M400 100C250 100 150 200 150 350C150 500 250 600 400 600C550 600 650 500 650 350C650 200 550 100 400 100Z" fill="#E2E8F0"/>
  <path d="M400 150C280 150 200 230 200 350C200 470 280 550 400 550C520 550 600 470 600 350C600 230 520 150 400 150Z" fill="#CBD5E1"/>
  <path d="M400 200C310 200 250 260 250 350C250 440 310 500 400 500C490 500 550 440 550 350C550 260 490 200 400 200Z" fill="#94A3B8"/>
  <circle cx="400" cy="350" r="100" fill="#64748B"/>
  <circle cx="370" cy="320" r="20" fill="white"/>
</svg>
